<svg width="28" height="31" viewBox="0 0 28 31" fill="none" xmlns="http://www.w3.org/2000/svg">
<path d="M25.7143 4.57143H23.5714V2.96428C23.5714 1.49107 22.3661 0.285712 20.8929 0.285712H19.8214C18.3482 0.285712 17.1429 1.49107 17.1429 2.96428V4.57143H10.7143V2.96428C10.7143 1.49107 9.50893 0.285712 8.03571 0.285712H6.96429C5.49107 0.285712 4.28571 1.49107 4.28571 2.96428V4.57143H2.14286C0.970982 4.57143 0 5.54241 0 6.71428V28.1429C0 29.3147 0.970982 30.2857 2.14286 30.2857H25.7143C26.8862 30.2857 27.8571 29.3147 27.8571 28.1429V6.71428C27.8571 5.54241 26.8862 4.57143 25.7143 4.57143ZM19.2857 2.96428C19.2857 2.66295 19.5201 2.42857 19.8214 2.42857H20.8929C21.1942 2.42857 21.4286 2.66295 21.4286 2.96428V7.78571C21.4286 8.08705 21.1942 8.32143 20.8929 8.32143H19.8214C19.5201 8.32143 19.2857 8.08705 19.2857 7.78571V2.96428ZM6.42857 2.96428C6.42857 2.66295 6.66295 2.42857 6.96429 2.42857H8.03571C8.33705 2.42857 8.57143 2.66295 8.57143 2.96428V7.78571C8.57143 8.08705 8.33705 8.32143 8.03571 8.32143H6.96429C6.66295 8.32143 6.42857 8.08705 6.42857 7.78571V2.96428ZM25.7143 28.1429H2.14286V11H25.7143V28.1429ZM15 18.5V14.75C15 14.4487 14.7656 14.2143 14.4643 14.2143H13.3929C13.0915 14.2143 12.8571 14.4487 12.8571 14.75V18.5H9.10714C8.8058 18.5 8.57143 18.7344 8.57143 19.0357V20.1071C8.57143 20.4085 8.8058 20.6429 9.10714 20.6429H12.8571V24.3929C12.8571 24.6942 13.0915 24.9286 13.3929 24.9286H14.4643C14.7656 24.9286 15 24.6942 15 24.3929V20.6429H18.75C19.0513 20.6429 19.2857 20.4085 19.2857 20.1071V19.0357C19.2857 18.7344 19.0513 18.5 18.75 18.5H15Z" fill="white"/>
</svg>
