<svg width="30" height="31" viewBox="0 0 30 31" fill="none" xmlns="http://www.w3.org/2000/svg">
<path d="M12.8571 28.1429V8.85714H19.2857V15.8214C19.2857 16.7087 20.0056 17.4286 20.8929 17.4286H27.8571V28.1429H12.8571ZM17.1429 4.03571C17.1429 4.32031 16.8917 4.57143 16.6071 4.57143H4.82143C4.53683 4.57143 4.28571 4.32031 4.28571 4.03571V2.96428C4.28571 2.67969 4.53683 2.42857 4.82143 2.42857H16.6071C16.8917 2.42857 17.1429 2.67969 17.1429 2.96428V4.03571ZM21.4286 15.2857V10.2801L26.4342 15.2857H21.4286ZM30 17.4286C30 16.5413 29.4978 15.3192 28.8616 14.683L22.0313 7.85268C21.8471 7.66853 21.6462 7.51786 21.4286 7.38393V1.89286C21.4286 1.00558 20.7087 0.285712 19.8214 0.285712H1.60714C0.719866 0.285712 0 1.00558 0 1.89286V24.3929C0 25.2801 0.719866 26 1.60714 26H10.7143V28.6786C10.7143 29.5658 11.4342 30.2857 12.3214 30.2857H28.3929C29.2801 30.2857 30 29.5658 30 28.6786V17.4286Z" fill="white"/>
</svg>
