<svg width="28" height="31" viewBox="0 0 28 31" fill="none" xmlns="http://www.w3.org/2000/svg">
<path d="M2.14286 28.1429V23.3214H6.96429V28.1429H2.14286ZM8.03571 28.1429V23.3214H13.3929V28.1429H8.03571ZM2.14286 22.25V16.8929H6.96429V22.25H2.14286ZM8.03571 22.25V16.8929H13.3929V22.25H8.03571ZM2.14286 15.8214V11H6.96429V15.8214H2.14286ZM14.4643 28.1429V23.3214H19.8214V28.1429H14.4643ZM8.03571 15.8214V11H13.3929V15.8214H8.03571ZM20.8929 28.1429V23.3214H25.7143V28.1429H20.8929ZM14.4643 22.25V16.8929H19.8214V22.25H14.4643ZM8.57143 7.78571C8.57143 8.07031 8.32031 8.32143 8.03571 8.32143H6.96429C6.67969 8.32143 6.42857 8.07031 6.42857 7.78571V2.96428C6.42857 2.67969 6.67969 2.42857 6.96429 2.42857H8.03571C8.32031 2.42857 8.57143 2.67969 8.57143 2.96428V7.78571ZM20.8929 22.25V16.8929H25.7143V22.25H20.8929ZM14.4643 15.8214V11H19.8214V15.8214H14.4643ZM20.8929 15.8214V11H25.7143V15.8214H20.8929ZM21.4286 7.78571C21.4286 8.07031 21.1775 8.32143 20.8929 8.32143H19.8214C19.5368 8.32143 19.2857 8.07031 19.2857 7.78571V2.96428C19.2857 2.67969 19.5368 2.42857 19.8214 2.42857H20.8929C21.1775 2.42857 21.4286 2.67969 21.4286 2.96428V7.78571ZM27.8571 6.71428C27.8571 5.54241 26.8862 4.57143 25.7143 4.57143H23.5714V2.96428C23.5714 1.49107 22.3661 0.285712 20.8929 0.285712H19.8214C18.3482 0.285712 17.1429 1.49107 17.1429 2.96428V4.57143H10.7143V2.96428C10.7143 1.49107 9.50893 0.285712 8.03571 0.285712H6.96429C5.49107 0.285712 4.28571 1.49107 4.28571 2.96428V4.57143H2.14286C0.970982 4.57143 0 5.54241 0 6.71428V28.1429C0 29.3147 0.970982 30.2857 2.14286 30.2857H25.7143C26.8862 30.2857 27.8571 29.3147 27.8571 28.1429V6.71428Z" fill="white"/>
</svg>
