<svg width="29" height="37" viewBox="0 0 29 37" fill="none" xmlns="http://www.w3.org/2000/svg">
<path d="M27 0.142855H1.28571C0.582589 0.142855 0 0.725446 0 1.42857V34.8571C0 35.5603 0.582589 36.1429 1.28571 36.1429H27C27.7031 36.1429 28.2857 35.5603 28.2857 34.8571V1.42857C28.2857 0.725446 27.7031 0.142855 27 0.142855ZM10.2857 5.92857C10.2857 5.56696 10.567 5.28571 10.9286 5.28571H12.2143C12.5759 5.28571 12.8571 5.56696 12.8571 5.92857V7.21428C12.8571 7.57589 12.5759 7.85714 12.2143 7.85714H10.9286C10.567 7.85714 10.2857 7.57589 10.2857 7.21428V5.92857ZM10.2857 11.0714C10.2857 10.7098 10.567 10.4286 10.9286 10.4286H12.2143C12.5759 10.4286 12.8571 10.7098 12.8571 11.0714V12.3571C12.8571 12.7188 12.5759 13 12.2143 13H10.9286C10.567 13 10.2857 12.7188 10.2857 12.3571V11.0714ZM10.2857 16.2143C10.2857 15.8527 10.567 15.5714 10.9286 15.5714H12.2143C12.5759 15.5714 12.8571 15.8527 12.8571 16.2143V17.5C12.8571 17.8616 12.5759 18.1429 12.2143 18.1429H10.9286C10.567 18.1429 10.2857 17.8616 10.2857 17.5V16.2143ZM10.2857 21.3571C10.2857 20.9955 10.567 20.7143 10.9286 20.7143H12.2143C12.5759 20.7143 12.8571 20.9955 12.8571 21.3571V22.6429C12.8571 23.0045 12.5759 23.2857 12.2143 23.2857H10.9286C10.567 23.2857 10.2857 23.0045 10.2857 22.6429V21.3571ZM7.71429 27.7857C7.71429 28.1473 7.43304 28.4286 7.07143 28.4286H5.78571C5.42411 28.4286 5.14286 28.1473 5.14286 27.7857V26.5C5.14286 26.1384 5.42411 25.8571 5.78571 25.8571H7.07143C7.43304 25.8571 7.71429 26.1384 7.71429 26.5V27.7857ZM7.71429 22.6429C7.71429 23.0045 7.43304 23.2857 7.07143 23.2857H5.78571C5.42411 23.2857 5.14286 23.0045 5.14286 22.6429V21.3571C5.14286 20.9955 5.42411 20.7143 5.78571 20.7143H7.07143C7.43304 20.7143 7.71429 20.9955 7.71429 21.3571V22.6429ZM7.71429 17.5C7.71429 17.8616 7.43304 18.1429 7.07143 18.1429H5.78571C5.42411 18.1429 5.14286 17.8616 5.14286 17.5V16.2143C5.14286 15.8527 5.42411 15.5714 5.78571 15.5714H7.07143C7.43304 15.5714 7.71429 15.8527 7.71429 16.2143V17.5ZM7.71429 12.3571C7.71429 12.7188 7.43304 13 7.07143 13H5.78571C5.42411 13 5.14286 12.7188 5.14286 12.3571V11.0714C5.14286 10.7098 5.42411 10.4286 5.78571 10.4286H7.07143C7.43304 10.4286 7.71429 10.7098 7.71429 11.0714V12.3571ZM7.71429 7.21428C7.71429 7.57589 7.43304 7.85714 7.07143 7.85714H5.78571C5.42411 7.85714 5.14286 7.57589 5.14286 7.21428V5.92857C5.14286 5.56696 5.42411 5.28571 5.78571 5.28571H7.07143C7.43304 5.28571 7.71429 5.56696 7.71429 5.92857V7.21428ZM18 32.9286C18 33.2902 17.7188 33.5714 17.3571 33.5714H10.9286C10.567 33.5714 10.2857 33.2902 10.2857 32.9286V29.0714C10.2857 28.7098 10.567 28.4286 10.9286 28.4286H17.3571C17.7188 28.4286 18 28.7098 18 29.0714V32.9286ZM18 22.6429C18 23.0045 17.7188 23.2857 17.3571 23.2857H16.0714C15.7098 23.2857 15.4286 23.0045 15.4286 22.6429V21.3571C15.4286 20.9955 15.7098 20.7143 16.0714 20.7143H17.3571C17.7188 20.7143 18 20.9955 18 21.3571V22.6429ZM18 17.5C18 17.8616 17.7188 18.1429 17.3571 18.1429H16.0714C15.7098 18.1429 15.4286 17.8616 15.4286 17.5V16.2143C15.4286 15.8527 15.7098 15.5714 16.0714 15.5714H17.3571C17.7188 15.5714 18 15.8527 18 16.2143V17.5ZM18 12.3571C18 12.7188 17.7188 13 17.3571 13H16.0714C15.7098 13 15.4286 12.7188 15.4286 12.3571V11.0714C15.4286 10.7098 15.7098 10.4286 16.0714 10.4286H17.3571C17.7188 10.4286 18 10.7098 18 11.0714V12.3571ZM18 7.21428C18 7.57589 17.7188 7.85714 17.3571 7.85714H16.0714C15.7098 7.85714 15.4286 7.57589 15.4286 7.21428V5.92857C15.4286 5.56696 15.7098 5.28571 16.0714 5.28571H17.3571C17.7188 5.28571 18 5.56696 18 5.92857V7.21428ZM23.1429 27.7857C23.1429 28.1473 22.8616 28.4286 22.5 28.4286H21.2143C20.8527 28.4286 20.5714 28.1473 20.5714 27.7857V26.5C20.5714 26.1384 20.8527 25.8571 21.2143 25.8571H22.5C22.8616 25.8571 23.1429 26.1384 23.1429 26.5V27.7857ZM23.1429 22.6429C23.1429 23.0045 22.8616 23.2857 22.5 23.2857H21.2143C20.8527 23.2857 20.5714 23.0045 20.5714 22.6429V21.3571C20.5714 20.9955 20.8527 20.7143 21.2143 20.7143H22.5C22.8616 20.7143 23.1429 20.9955 23.1429 21.3571V22.6429ZM23.1429 17.5C23.1429 17.8616 22.8616 18.1429 22.5 18.1429H21.2143C20.8527 18.1429 20.5714 17.8616 20.5714 17.5V16.2143C20.5714 15.8527 20.8527 15.5714 21.2143 15.5714H22.5C22.8616 15.5714 23.1429 15.8527 23.1429 16.2143V17.5ZM23.1429 12.3571C23.1429 12.7188 22.8616 13 22.5 13H21.2143C20.8527 13 20.5714 12.7188 20.5714 12.3571V11.0714C20.5714 10.7098 20.8527 10.4286 21.2143 10.4286H22.5C22.8616 10.4286 23.1429 10.7098 23.1429 11.0714V12.3571ZM23.1429 7.21428C23.1429 7.57589 22.8616 7.85714 22.5 7.85714H21.2143C20.8527 7.85714 20.5714 7.57589 20.5714 7.21428V5.92857C20.5714 5.56696 20.8527 5.28571 21.2143 5.28571H22.5C22.8616 5.28571 23.1429 5.56696 23.1429 5.92857V7.21428Z" fill="white"/>
</svg>
