<svg width="26" height="27" viewBox="0 0 26 27" fill="none" xmlns="http://www.w3.org/2000/svg">
<path d="M15 7.39286C15 7.09152 14.7656 6.85714 14.4643 6.85714H13.3929C13.0915 6.85714 12.8571 7.09152 12.8571 7.39286V13.2857H9.10714C8.8058 13.2857 8.57143 13.5201 8.57143 13.8214V14.8929C8.57143 15.1942 8.8058 15.4286 9.10714 15.4286H14.4643C14.7656 15.4286 15 15.1942 15 14.8929V7.39286ZM21.9643 13.2857C21.9643 18.308 17.8795 22.3929 12.8571 22.3929C7.83482 22.3929 3.75 18.308 3.75 13.2857C3.75 8.26339 7.83482 4.17857 12.8571 4.17857C17.8795 4.17857 21.9643 8.26339 21.9643 13.2857ZM25.7143 13.2857C25.7143 6.1875 19.9554 0.42857 12.8571 0.42857C5.75893 0.42857 0 6.1875 0 13.2857C0 20.3839 5.75893 26.1429 12.8571 26.1429C19.9554 26.1429 25.7143 20.3839 25.7143 13.2857Z" fill="white"/>
</svg>
