<svg width="17" height="31" viewBox="0 0 17 31" fill="none" xmlns="http://www.w3.org/2000/svg">
<path d="M16.3728 20.1239C16.3728 16.0893 12.8906 14.7333 9.81027 13.5446C7.43304 12.6239 5.39063 11.8371 5.39063 10.0625C5.39063 8.53906 6.86384 7.48438 8.98996 7.48438C11.5011 7.48438 13.5268 9.27567 13.5435 9.29241C13.6775 9.39286 13.8281 9.44308 13.9955 9.4096C14.1629 9.39286 14.2969 9.29241 14.3806 9.14174L15.7366 6.69754C15.8538 6.49665 15.8203 6.24553 15.6529 6.06138C15.5859 5.99442 13.7779 4.1529 10.3795 3.76786V0.821428C10.3795 0.520089 10.1451 0.285712 9.84375 0.285712H7.58371C7.29911 0.285712 7.04799 0.520089 7.04799 0.821428V3.83482C3.54911 4.50446 1.13839 7.04911 1.13839 10.1295C1.13839 14.3315 4.88839 15.8382 7.90179 17.0268C10.1618 17.9308 12.1373 18.7176 12.1373 20.3248C12.1373 22.2165 10.3627 23.0871 8.7221 23.0871C5.75893 23.0871 3.41518 20.8437 3.3817 20.827C3.28125 20.7098 3.13058 20.6596 2.97991 20.6763C2.82924 20.6931 2.67857 20.76 2.59487 20.8772L0.870536 23.1373C0.719866 23.3382 0.736607 23.6228 0.904018 23.8237C0.987723 23.9241 3.13058 26.2679 7.04799 26.8203V29.75C7.04799 30.0513 7.29911 30.2857 7.58371 30.2857H9.84375C10.1451 30.2857 10.3795 30.0513 10.3795 29.75V26.8203C13.9286 26.2344 16.3728 23.5391 16.3728 20.1239Z" fill="white"/>
</svg>
