<svg width="97" height="110" viewBox="0 0 97 110" fill="none" xmlns="http://www.w3.org/2000/svg">
<rect width="95" height="110" fill="black" fill-opacity="0" transform="translate(1)"/>
<path d="M25.6875 91.7969L29.5156 71.5625H35.3555L29.0469 100H23.1484L18.5195 80.9766L13.8906 100H7.99219L1.68359 71.5625H7.52344L11.3711 91.7578L16.0586 71.5625H21.0195L25.6875 91.7969ZM49.75 100C49.4896 99.4922 49.3008 98.8607 49.1836 98.1055C47.8164 99.6289 46.0391 100.391 43.8516 100.391C41.7812 100.391 40.0625 99.7917 38.6953 98.5938C37.3411 97.3958 36.6641 95.8854 36.6641 94.0625C36.6641 91.8229 37.4909 90.1042 39.1445 88.9062C40.8112 87.7083 43.2135 87.1029 46.3516 87.0898H48.9492V85.8789C48.9492 84.9023 48.6953 84.1211 48.1875 83.5352C47.6927 82.9492 46.9049 82.6562 45.8242 82.6562C44.8737 82.6562 44.125 82.8841 43.5781 83.3398C43.0443 83.7956 42.7773 84.4206 42.7773 85.2148H37.1328C37.1328 83.9909 37.5104 82.8581 38.2656 81.8164C39.0208 80.7747 40.0885 79.9609 41.4688 79.375C42.849 78.776 44.3984 78.4766 46.1172 78.4766C48.7214 78.4766 50.7852 79.1341 52.3086 80.4492C53.8451 81.7513 54.6133 83.5872 54.6133 85.957V95.1172C54.6263 97.1224 54.9062 98.6393 55.4531 99.668V100H49.75ZM45.082 96.0742C45.9154 96.0742 46.6836 95.8919 47.3867 95.5273C48.0898 95.1497 48.6107 94.6484 48.9492 94.0234V90.3906H46.8398C44.0143 90.3906 42.5104 91.3672 42.3281 93.3203L42.3086 93.6523C42.3086 94.3555 42.556 94.9349 43.0508 95.3906C43.5456 95.8464 44.2227 96.0742 45.082 96.0742ZM64.9062 100H59.2422V78.8672H64.9062V100ZM58.9102 73.3984C58.9102 72.5521 59.1901 71.8555 59.75 71.3086C60.3229 70.7617 61.0977 70.4883 62.0742 70.4883C63.0378 70.4883 63.806 70.7617 64.3789 71.3086C64.9518 71.8555 65.2383 72.5521 65.2383 73.3984C65.2383 74.2578 64.9453 74.9609 64.3594 75.5078C63.7865 76.0547 63.0247 76.3281 62.0742 76.3281C61.1237 76.3281 60.3555 76.0547 59.7695 75.5078C59.1966 74.9609 58.9102 74.2578 58.9102 73.3984ZM76.332 73.6719V78.8672H79.9453V83.0078H76.332V93.5547C76.332 94.3359 76.4818 94.8958 76.7812 95.2344C77.0807 95.5729 77.6536 95.7422 78.5 95.7422C79.125 95.7422 79.6784 95.6966 80.1602 95.6055V99.8828C79.0534 100.221 77.9141 100.391 76.7422 100.391C72.7839 100.391 70.7656 98.3919 70.6875 94.3945V83.0078H67.6016V78.8672H70.6875V73.6719H76.332ZM94.9648 84.1602C94.1966 84.056 93.5195 84.0039 92.9336 84.0039C90.7982 84.0039 89.3984 84.7266 88.7344 86.1719V100H83.0898V78.8672H88.4219L88.5781 81.3867C89.7109 79.4466 91.2799 78.4766 93.2852 78.4766C93.9102 78.4766 94.4961 78.5612 95.043 78.7305L94.9648 84.1602Z" fill="black"/>
<path d="M25 3.85714V55.2857H76.4286V3.85714H25ZM61.3281 41.1897L50.7143 51.3683L40.1004 41.1897L47.5 20.0625L40.1004 10.1183H61.3281L53.9286 20.0625L61.3281 41.1897Z" fill="#06D2B5"/>
</svg>
