<svg width="33" height="31" viewBox="0 0 33 31" fill="none" xmlns="http://www.w3.org/2000/svg">
<path d="M9.92746 15.2857C9.05692 14.0301 8.57143 12.5234 8.57143 11C8.57143 10.6317 8.60491 10.2634 8.65513 9.89509C7.93527 10.1462 7.19866 10.2801 6.42857 10.2801C4.16853 10.2801 2.42746 8.85714 2.07589 8.85714C-0.0502232 8.85714 0 13.4107 0 14.7667C0 16.625 1.57366 17.4286 3.24777 17.4286H5.49107C6.61272 16.0893 8.18638 15.3359 9.92746 15.2857ZM27.8571 25.9498C27.8571 22.1663 26.9699 16.3571 22.0647 16.3571C21.4955 16.3571 19.4196 18.6842 16.0714 18.6842C12.7232 18.6842 10.6473 16.3571 10.0781 16.3571C5.17299 16.3571 4.28571 22.1663 4.28571 25.9498C4.28571 28.6618 6.07701 30.2857 8.75558 30.2857H23.3873C26.0659 30.2857 27.8571 28.6618 27.8571 25.9498ZM10.7143 4.57143C10.7143 2.21094 8.78906 0.285712 6.42857 0.285712C4.06808 0.285712 2.14286 2.21094 2.14286 4.57143C2.14286 6.93192 4.06808 8.85714 6.42857 8.85714C8.78906 8.85714 10.7143 6.93192 10.7143 4.57143ZM22.5 11C22.5 7.45089 19.6205 4.57143 16.0714 4.57143C12.5223 4.57143 9.64286 7.45089 9.64286 11C9.64286 14.5491 12.5223 17.4286 16.0714 17.4286C19.6205 17.4286 22.5 14.5491 22.5 11ZM32.1429 14.7667C32.1429 13.4107 32.1931 8.85714 30.067 8.85714C29.7154 8.85714 27.9743 10.2801 25.7143 10.2801C24.9442 10.2801 24.2076 10.1462 23.4877 9.89509C23.5379 10.2634 23.5714 10.6317 23.5714 11C23.5714 12.5234 23.0859 14.0301 22.2154 15.2857C23.9565 15.3359 25.5301 16.0893 26.6518 17.4286H28.8951C30.5692 17.4286 32.1429 16.625 32.1429 14.7667ZM30 4.57143C30 2.21094 28.0748 0.285712 25.7143 0.285712C23.3538 0.285712 21.4286 2.21094 21.4286 4.57143C21.4286 6.93192 23.3538 8.85714 25.7143 8.85714C28.0748 8.85714 30 6.93192 30 4.57143Z" fill="white"/>
</svg>
