<svg width="27" height="27" viewBox="0 0 27 27" fill="none" xmlns="http://www.w3.org/2000/svg">
<path d="M22.0013 14.9013C22.0013 15.4872 21.5158 15.9727 20.9299 15.9727H15.5728V21.3299C15.5728 21.9158 15.0873 22.4013 14.5013 22.4013H12.3585C11.7725 22.4013 11.287 21.9158 11.287 21.3299V15.9727H5.9299C5.34396 15.9727 4.85847 15.4872 4.85847 14.9013V12.7584C4.85847 12.1725 5.34396 11.687 5.9299 11.687H11.287V6.32987C11.287 5.74394 11.7725 5.25844 12.3585 5.25844H14.5013C15.0873 5.25844 15.5728 5.74394 15.5728 6.32987V11.687H20.9299C21.5158 11.687 22.0013 12.1725 22.0013 12.7584V14.9013ZM26.287 5.79416C26.287 3.13233 24.1274 0.972729 21.4656 0.972729H5.39418C2.73235 0.972729 0.572754 3.13233 0.572754 5.79416V21.8656C0.572754 24.5274 2.73235 26.687 5.39418 26.687H21.4656C24.1274 26.687 26.287 24.5274 26.287 21.8656V5.79416Z" fill="#03D0D0"/>
</svg>
