<svg width="30" height="31" viewBox="0 0 30 31" fill="none" xmlns="http://www.w3.org/2000/svg">
<path d="M25.4967 22.702C23.1696 25.9833 19.3359 28.1429 15 28.1429C10.6641 28.1429 6.83036 25.9833 4.50335 22.702C4.93862 19.5714 6.21094 16.7924 9.05692 16.4074C10.5301 18.0145 12.6563 19.0357 15 19.0357C17.3438 19.0357 19.4699 18.0145 20.9431 16.4074C23.7891 16.7924 25.0614 19.5714 25.4967 22.702ZM21.4286 11C21.4286 14.5491 18.5491 17.4286 15 17.4286C11.4509 17.4286 8.57143 14.5491 8.57143 11C8.57143 7.45089 11.4509 4.57143 15 4.57143C18.5491 4.57143 21.4286 7.45089 21.4286 11ZM30 15.2857C30 6.99888 23.2868 0.285712 15 0.285712C6.71317 0.285712 0 6.99888 0 15.2857C0 23.5558 6.71317 30.2857 15 30.2857C23.3036 30.2857 30 23.5391 30 15.2857Z" fill="#19C266"/>
</svg>
