<svg width="30" height="27" viewBox="0 0 30 27" fill="none" xmlns="http://www.w3.org/2000/svg">
<path d="M30 11.2857C30 5.35938 23.2868 0.571428 15 0.571428C6.71317 0.571428 0 5.37612 0 11.2857C0 14.6842 2.20982 17.7143 5.65848 19.673C4.87165 22.4688 3.66629 23.4732 2.61161 24.6618C2.36049 24.9632 2.07589 25.2143 2.1596 25.6328C2.1596 25.6328 2.1596 25.6328 2.1596 25.6496C2.2433 26.0513 2.59487 26.3192 2.96317 26.2857C3.61607 26.202 4.26897 26.0848 4.87165 25.9174C7.76786 25.1808 10.3795 23.808 12.5725 21.8661C13.3594 21.9498 14.1797 22 15 22C23.2868 22 30 17.2121 30 11.2857Z" fill="#ABABAB"/>
</svg>
