<svg width="18" height="18" viewBox="0 0 18 18" fill="none" xmlns="http://www.w3.org/2000/svg">
<path d="M10 4.92857C10 4.72768 9.84375 4.57143 9.64286 4.57143H8.92857C8.72768 4.57143 8.57143 4.72768 8.57143 4.92857V8.85714H6.07143C5.87054 8.85714 5.71429 9.01339 5.71429 9.21429V9.92857C5.71429 10.1295 5.87054 10.2857 6.07143 10.2857H9.64286C9.84375 10.2857 10 10.1295 10 9.92857V4.92857ZM14.6429 8.85714C14.6429 12.2054 11.9196 14.9286 8.57143 14.9286C5.22321 14.9286 2.5 12.2054 2.5 8.85714C2.5 5.50893 5.22321 2.78571 8.57143 2.78571C11.9196 2.78571 14.6429 5.50893 14.6429 8.85714ZM17.1429 8.85714C17.1429 4.125 13.3036 0.285713 8.57143 0.285713C3.83929 0.285713 0 4.125 0 8.85714C0 13.5893 3.83929 17.4286 8.57143 17.4286C13.3036 17.4286 17.1429 13.5893 17.1429 8.85714Z" fill="#03D0D0"/>
</svg>
