<svg width="10" height="19" viewBox="0 0 10 19" fill="none" xmlns="http://www.w3.org/2000/svg">
<path d="M9.82366 12.4743C9.82366 10.0536 7.73438 9.23996 5.88616 8.52679C4.45982 7.97433 3.23438 7.50223 3.23438 6.4375C3.23438 5.52344 4.1183 4.89062 5.39397 4.89062C6.90067 4.89062 8.11607 5.9654 8.12612 5.97545C8.20647 6.03571 8.29688 6.06585 8.39732 6.04576C8.49777 6.03571 8.57813 5.97545 8.62835 5.88504L9.44196 4.41853C9.51228 4.29799 9.49219 4.14732 9.39174 4.03683C9.35156 3.99665 8.26674 2.89174 6.22768 2.66071V0.892857C6.22768 0.712053 6.08705 0.571427 5.90625 0.571427H4.55022C4.37946 0.571427 4.22879 0.712053 4.22879 0.892857V2.70089C2.12946 3.10268 0.683036 4.62946 0.683036 6.47768C0.683036 8.99888 2.93304 9.9029 4.74107 10.6161C6.0971 11.1585 7.28237 11.6306 7.28237 12.5949C7.28237 13.7299 6.21763 14.2522 5.23326 14.2522C3.45536 14.2522 2.04911 12.9062 2.02902 12.8962C1.96875 12.8259 1.87835 12.7958 1.78795 12.8058C1.69754 12.8158 1.60714 12.856 1.55692 12.9263L0.522321 14.2824C0.43192 14.4029 0.441964 14.5737 0.542411 14.6942C0.592634 14.7545 1.87835 16.1607 4.22879 16.4922V18.25C4.22879 18.4308 4.37946 18.5714 4.55022 18.5714H5.90625C6.08705 18.5714 6.22768 18.4308 6.22768 18.25V16.4922C8.35714 16.1406 9.82366 14.5234 9.82366 12.4743Z" fill="#03D0D0"/>
</svg>
