<svg width="26" height="27" viewBox="0 0 26 27" fill="none" xmlns="http://www.w3.org/2000/svg">
<path d="M12.0033 21.6395C11.5848 22.058 10.9152 22.058 10.4967 21.6395L8.78906 19.9319C8.37054 19.5134 8.37054 18.8437 8.78906 18.4252L13.9286 13.2857L8.78906 8.1462C8.37054 7.72768 8.37054 7.05803 8.78906 6.63951L10.4967 4.93192C10.9152 4.51339 11.5848 4.51339 12.0033 4.93192L19.6038 12.5324C20.0223 12.9509 20.0223 13.6205 19.6038 14.0391L12.0033 21.6395ZM25.7143 13.2857C25.7143 6.1875 19.9554 0.42857 12.8571 0.42857C5.75893 0.42857 0 6.1875 0 13.2857C0 20.3839 5.75893 26.1429 12.8571 26.1429C19.9554 26.1429 25.7143 20.3839 25.7143 13.2857Z" fill="black"/>
</svg>
