<svg width="19" height="18" viewBox="0 0 19 18" fill="none" xmlns="http://www.w3.org/2000/svg">
<path d="M18.5714 7.07812C18.5714 6.7433 18.2143 6.60938 17.9464 6.56473L12.3438 5.75L9.83259 0.671874C9.73214 0.459821 9.54241 0.214285 9.28571 0.214285C9.02902 0.214285 8.83929 0.459821 8.73884 0.671874L6.22768 5.75L0.625 6.56473C0.345982 6.60938 0 6.7433 0 7.07812C0 7.27902 0.145089 7.46875 0.279018 7.61384L4.34152 11.5647L3.3817 17.1451C3.37054 17.2232 3.35938 17.2902 3.35938 17.3683C3.35938 17.6585 3.50446 17.9263 3.82813 17.9263C3.98438 17.9263 4.12946 17.8705 4.27455 17.7924L9.28571 15.1585L14.2969 17.7924C14.4308 17.8705 14.5871 17.9263 14.7433 17.9263C15.067 17.9263 15.2009 17.6585 15.2009 17.3683C15.2009 17.2902 15.2009 17.2232 15.1897 17.1451L14.2299 11.5647L18.2813 7.61384C18.4263 7.46875 18.5714 7.27902 18.5714 7.07812Z" fill="#70EDAA"/>
</svg>
